<svg width="432" height="41" viewBox="0 0 432 41" fill="none" xmlns="http://www.w3.org/2000/svg">
<path d="M71.5331 38.0005L71.6659 36.5063L71.5331 38.0005ZM338.192 4.69799L338.396 6.18404L338.192 4.69799ZM429.936 17.1493C430.765 17.1521 431.439 16.4829 431.441 15.6545L431.488 2.15455C431.491 1.32613 430.822 0.652232 429.993 0.649364C429.165 0.646496 428.491 1.31574 428.488 2.14416L428.447 14.1441L416.447 14.1025C415.618 14.0997 414.944 14.7689 414.942 15.5973C414.939 16.4258 415.608 17.0997 416.436 17.1025L429.936 17.1493ZM2 8.9389C0.500526 8.97864 0.500589 8.98092 0.500657 8.98329C0.500684 8.9842 0.500759 8.98667 0.500817 8.98849C0.500935 8.99213 0.501075 8.99613 0.501242 9.00048C0.501575 9.00918 0.502014 9.0193 0.502593 9.03082C0.50375 9.05386 0.505466 9.08248 0.508009 9.11655C0.513094 9.18467 0.521487 9.27453 0.535337 9.38485C0.563043 9.60554 0.612565 9.90793 0.701045 10.2819C0.878196 11.0305 1.21058 12.0619 1.8329 13.2946C3.08088 15.7666 5.47087 19.0011 10.0263 22.3782C19.1101 29.1126 36.809 36.4212 71.4004 39.4946L71.6659 36.5063C37.3319 33.4559 20.2643 26.2337 11.8129 19.9683C7.60067 16.8455 5.53086 13.9628 4.51097 11.9426C3.99934 10.9292 3.74576 10.1207 3.62043 9.59108C3.55767 9.32584 3.52682 9.12946 3.51197 9.01115C3.50454 8.95198 3.50111 8.91228 3.49969 8.89324C3.49897 8.88371 3.49877 8.87935 3.49881 8.88029C3.49884 8.88076 3.49893 8.88255 3.49905 8.88569C3.49911 8.88726 3.49917 8.88917 3.49925 8.89142C3.49928 8.89254 3.49934 8.89448 3.49936 8.89504C3.49942 8.89706 3.49947 8.89917 2 8.9389ZM71.4004 39.4946C106.073 42.5752 155.12 36.6591 204.259 28.7921C253.522 20.9052 302.811 11.0713 338.396 6.18404L337.988 3.21194C302.406 8.09882 252.828 17.9781 203.785 25.8298C154.617 33.7015 105.918 39.5496 71.6659 36.5063L71.4004 39.4946ZM338.396 6.18404C373.821 1.31872 396.545 4.05979 410.347 7.95201C417.248 9.89804 421.926 12.1335 424.853 13.8563C426.317 14.718 427.345 15.4526 427.995 15.9604C428.321 16.2143 428.552 16.4117 428.697 16.5401C428.769 16.6043 428.819 16.6513 428.849 16.6795C428.864 16.6936 428.874 16.703 428.878 16.7075C428.881 16.7098 428.882 16.7108 428.882 16.7106C428.881 16.7105 428.881 16.7101 428.88 16.7094C428.88 16.709 428.879 16.7082 428.879 16.7081C428.878 16.7072 428.877 16.7063 429.941 15.6493C431.006 14.5923 431.005 14.5912 431.004 14.59C431.003 14.5895 431.002 14.5883 431.001 14.5873C430.999 14.5853 430.996 14.583 430.994 14.5804C430.989 14.5752 430.982 14.5687 430.974 14.561C430.959 14.5457 430.938 14.5255 430.911 14.5007C430.859 14.4511 430.785 14.3829 430.689 14.2977C430.498 14.1273 430.217 13.8889 429.841 13.5952C429.088 13.0078 427.952 12.1995 426.374 11.2709C423.218 9.41319 418.302 7.07819 411.161 5.06462C396.881 1.03765 373.73 -1.69692 337.988 3.21194L338.396 6.18404Z" fill="black"/>
</svg>
