<svg width="82" height="82" viewBox="0 0 82 82" fill="none" xmlns="http://www.w3.org/2000/svg">
<path d="M41 1L43.3901 25.9095L53.3607 2.95774L47.9364 27.3866L64.5114 8.63932L51.8036 30.1964L73.3607 17.4886L54.6134 34.0636L79.0423 28.6393L56.0905 38.6099L81 41L56.0905 43.3901L79.0423 53.3607L54.6134 47.9364L73.3607 64.5114L51.8036 51.8036L64.5114 73.3607L47.9364 54.6134L53.3607 79.0423L43.3901 56.0905L41 81L38.6099 56.0905L28.6393 79.0423L34.0636 54.6134L17.4886 73.3607L30.1964 51.8036L8.63932 64.5114L27.3866 47.9364L2.95774 53.3607L25.9095 43.3901L1 41L25.9095 38.6099L2.95774 28.6393L27.3866 34.0636L8.63932 17.4886L30.1964 30.1964L17.4886 8.63932L34.0636 27.3866L28.6393 2.95774L38.6099 25.9095L41 1Z" fill="#CEC5BE" stroke="#CEC5BE" stroke-width="2"/>
</svg>
