<svg width="122" height="31" viewBox="0 0 122 31" fill="none" xmlns="http://www.w3.org/2000/svg">
<path d="M14.9853 8.94737C14.9853 6.7673 13.8725 5 12.4999 5C11.1273 5 10.0145 6.7673 10.0145 8.94737" stroke="black" stroke-width="1.5"/>
<line x1="10.0145" y1="8.19739" x2="14.9853" y2="8.19739" stroke="black" stroke-width="1.5"/>
<path d="M23.6842 22.1053C23.6842 14.8384 18.6769 8.94739 12.5 8.94739C6.32314 8.94739 1.3158 14.8384 1.3158 22.1053" stroke="black" stroke-width="1.5"/>
<line x1="1.3158" y1="21.3553" x2="23.6842" y2="21.3553" stroke="black" stroke-width="1.5"/>
<line y1="23.9868" x2="25" y2="23.9868" stroke="black" stroke-width="1.5"/>
<path d="M47.701 25H43.203L41.227 20.528L39.589 22.192L39.199 25H35.299L38.029 5.5H41.929L40.434 16.134L44.477 12H49.573L44.347 17.356L47.701 25ZM51.1216 12H55.0216L53.2016 25H49.3016L51.1216 12ZM53.2926 10.648C52.7293 10.648 52.283 10.4617 51.9536 10.089C51.6243 9.71633 51.4986 9.25267 51.5766 8.698C51.6546 8.152 51.9103 7.69267 52.3436 7.32C52.777 6.93867 53.271 6.748 53.8256 6.748C54.3716 6.748 54.805 6.93867 55.1256 7.32C55.455 7.69267 55.5806 8.152 55.5026 8.698C55.4246 9.25267 55.1733 9.71633 54.7486 10.089C54.3326 10.4617 53.8473 10.648 53.2926 10.648ZM64.7334 15.9H62.5234L61.2494 25H57.3494L58.6234 15.9H56.9334L57.4794 12H59.1694L59.7414 7.918H63.6414L63.0694 12H65.2794L64.7334 15.9ZM73.5596 20.736L76.7966 22.634C76.086 23.4487 75.2453 24.103 74.2746 24.597C73.304 25.091 72.2856 25.338 71.2196 25.338C70.0236 25.338 68.975 25.0303 68.0736 24.415C67.181 23.7997 66.5136 22.9763 66.0716 21.945C65.6383 20.905 65.5083 19.7567 65.6816 18.5C65.8116 17.5467 66.102 16.6583 66.5526 15.835C67.012 15.003 67.584 14.275 68.2686 13.651C68.9533 13.0183 69.7116 12.5243 70.5436 12.169C71.3843 11.8137 72.251 11.636 73.1436 11.636C74.2096 11.636 75.1586 11.883 75.9906 12.377C76.8313 12.871 77.49 13.534 77.9666 14.366L74.1836 16.264C73.9843 16.03 73.746 15.8523 73.4686 15.731C73.2 15.601 72.9096 15.536 72.5976 15.536C72.1036 15.536 71.64 15.6747 71.2066 15.952C70.782 16.2293 70.4223 16.5933 70.1276 17.044C69.8416 17.4947 69.6596 17.98 69.5816 18.5C69.5123 19.0113 69.5556 19.4923 69.7116 19.943C69.8763 20.385 70.1363 20.7447 70.4916 21.022C70.847 21.2993 71.2716 21.438 71.7656 21.438C72.0776 21.438 72.3853 21.3773 72.6886 21.256C73.0006 21.126 73.291 20.9527 73.5596 20.736ZM91.6493 16.693L90.4923 25H86.5923L87.6063 17.785C87.667 17.3777 87.6193 17.0093 87.4633 16.68C87.3073 16.342 87.0777 16.0777 86.7743 15.887C86.471 15.6877 86.1157 15.588 85.7083 15.588C85.301 15.588 84.9153 15.6877 84.5513 15.887C84.196 16.0777 83.897 16.342 83.6543 16.68C83.4203 17.0093 83.273 17.3777 83.2123 17.785L82.1983 25H78.2983L81.0153 5.5H84.9153L83.9013 12.819C84.3867 12.4463 84.9197 12.156 85.5003 11.948C86.0897 11.74 86.692 11.636 87.3073 11.636C88.2433 11.636 89.058 11.8657 89.7513 12.325C90.4533 12.7757 90.9777 13.3823 91.3243 14.145C91.6797 14.9077 91.788 15.757 91.6493 16.693ZM98.5145 25.338C97.3185 25.338 96.2699 25.0303 95.3685 24.415C94.4759 23.7997 93.8085 22.972 93.3665 21.932C92.9332 20.892 92.8032 19.7437 92.9765 18.487C93.1065 17.5423 93.3969 16.6583 93.8475 15.835C94.3069 15.003 94.8789 14.275 95.5635 13.651C96.2482 13.0183 97.0065 12.5243 97.8385 12.169C98.6792 11.8137 99.5459 11.636 100.439 11.636C101.479 11.636 102.397 11.8657 103.195 12.325C103.992 12.7757 104.633 13.391 105.119 14.171C105.613 14.9423 105.912 15.8133 106.016 16.784C106.128 17.7547 106.016 18.7557 105.678 19.787H97.0065C97.0845 20.0903 97.2059 20.3677 97.3705 20.619C97.5439 20.8617 97.7692 21.0567 98.0465 21.204C98.3239 21.3513 98.6619 21.4293 99.0605 21.438C99.4419 21.4467 99.8059 21.3643 100.153 21.191C100.508 21.0177 100.824 20.7837 101.102 20.489L104.95 21.412C104.265 22.5647 103.346 23.5093 102.194 24.246C101.041 24.974 99.8145 25.338 98.5145 25.338ZM97.2665 16.927H102.142C102.072 16.5543 101.934 16.225 101.726 15.939C101.526 15.653 101.275 15.4277 100.972 15.263C100.677 15.0983 100.343 15.016 99.9705 15.016C99.6065 15.016 99.2512 15.0983 98.9045 15.263C98.5579 15.4277 98.2415 15.653 97.9555 15.939C97.6782 16.225 97.4485 16.5543 97.2665 16.927ZM120.379 16.693L119.222 25H115.322L116.336 17.785C116.396 17.3777 116.349 17.0093 116.193 16.68C116.037 16.342 115.807 16.0777 115.504 15.887C115.2 15.6877 114.845 15.588 114.438 15.588C114.03 15.588 113.645 15.6877 113.281 15.887C112.925 16.0777 112.626 16.342 112.384 16.68C112.15 17.0093 112.002 17.3777 111.942 17.785L110.928 25H107.028L108.835 12H112.735L112.631 12.819C113.116 12.4463 113.649 12.156 114.23 11.948C114.819 11.74 115.421 11.636 116.037 11.636C116.973 11.636 117.787 11.8657 118.481 12.325C119.183 12.7757 119.707 13.3823 120.054 14.145C120.409 14.9077 120.517 15.757 120.379 16.693Z" fill="black"/>
</svg>
